<svg width="115" height="152" viewBox="0 0 115 152" fill="none" xmlns="http://www.w3.org/2000/svg">
<rect x="20" y="20" width="75" height="75" rx="12" fill="#1C2024"/>
<path d="M75 75H40V40H75L57.5 57.5L75 75Z" fill="url(#paint0_linear_44_9)"/>
<path d="M43.912 126L40.146 121.646V126H38.55V116.27H40.146V120.708L43.926 116.27H45.928L41.7 121.142L45.998 126H43.912ZM50.7554 126.126C50.0274 126.126 49.3694 125.963 48.7814 125.636C48.1934 125.3 47.7314 124.833 47.3954 124.236C47.0594 123.629 46.8914 122.929 46.8914 122.136C46.8914 121.352 47.064 120.657 47.4094 120.05C47.7547 119.443 48.226 118.977 48.8234 118.65C49.4207 118.323 50.088 118.16 50.8254 118.16C51.5627 118.16 52.23 118.323 52.8274 118.65C53.4247 118.977 53.896 119.443 54.2414 120.05C54.5867 120.657 54.7594 121.352 54.7594 122.136C54.7594 122.92 54.582 123.615 54.2274 124.222C53.8727 124.829 53.3874 125.3 52.7714 125.636C52.1647 125.963 51.4927 126.126 50.7554 126.126ZM50.7554 124.74C51.166 124.74 51.5487 124.642 51.9034 124.446C52.2674 124.25 52.5614 123.956 52.7854 123.564C53.0094 123.172 53.1214 122.696 53.1214 122.136C53.1214 121.576 53.014 121.105 52.7994 120.722C52.5847 120.33 52.3 120.036 51.9454 119.84C51.5907 119.644 51.208 119.546 50.7974 119.546C50.3867 119.546 50.004 119.644 49.6494 119.84C49.304 120.036 49.0287 120.33 48.8234 120.722C48.618 121.105 48.5154 121.576 48.5154 122.136C48.5154 122.967 48.7254 123.611 49.1454 124.068C49.5747 124.516 50.1114 124.74 50.7554 124.74ZM58.1991 119.588V123.858C58.1991 124.147 58.2644 124.357 58.3951 124.488C58.5351 124.609 58.7684 124.67 59.0951 124.67H60.0751V126H58.8151C58.0964 126 57.5458 125.832 57.1631 125.496C56.7804 125.16 56.5891 124.614 56.5891 123.858V119.588H55.6791V118.286H56.5891V116.368H58.1991V118.286H60.0751V119.588H58.1991ZM63.1421 115.64V126H61.5461V115.64H63.1421ZM66.0495 117.264C65.7602 117.264 65.5175 117.166 65.3215 116.97C65.1255 116.774 65.0275 116.531 65.0275 116.242C65.0275 115.953 65.1255 115.71 65.3215 115.514C65.5175 115.318 65.7602 115.22 66.0495 115.22C66.3295 115.22 66.5675 115.318 66.7635 115.514C66.9595 115.71 67.0575 115.953 67.0575 116.242C67.0575 116.531 66.9595 116.774 66.7635 116.97C66.5675 117.166 66.3295 117.264 66.0495 117.264ZM66.8335 118.286V126H65.2375V118.286H66.8335ZM72.8209 118.16C73.4276 118.16 73.9689 118.286 74.4449 118.538C74.9302 118.79 75.3082 119.163 75.5789 119.658C75.8496 120.153 75.9849 120.75 75.9849 121.45V126H74.4029V121.688C74.4029 120.997 74.2302 120.47 73.8849 120.106C73.5396 119.733 73.0682 119.546 72.4709 119.546C71.8736 119.546 71.3976 119.733 71.0429 120.106C70.6976 120.47 70.5249 120.997 70.5249 121.688V126H68.9289V118.286H70.5249V119.168C70.7862 118.851 71.1176 118.603 71.5189 118.426C71.9296 118.249 72.3636 118.16 72.8209 118.16Z" fill="white"/>
<defs>
<linearGradient id="paint0_linear_44_9" x1="75" y1="40" x2="40" y2="75" gradientUnits="userSpaceOnUse">
<stop offset="0.00343514" stop-color="#E44857"/>
<stop offset="0.4689" stop-color="#C711E1"/>
<stop offset="1" stop-color="#7F52FF"/>
</linearGradient>
</defs>
</svg>
