<svg width="200" height="246" viewBox="0 0 200 246" fill="none" xmlns="http://www.w3.org/2000/svg">
<rect x="20" y="20" width="160" height="160" rx="20" fill="#191919"/>
<path d="M140 140H60V60H140L100 100L140 140Z" fill="url(#paint0_linear_44_9)"/>
<path d="M80.66 218L75.28 211.78V218H73V204.1H75.28V210.44L80.68 204.1H83.54L77.5 211.06L83.64 218H80.66ZM90.4363 218.18C89.3963 218.18 88.4563 217.947 87.6163 217.48C86.7763 217 86.1163 216.333 85.6363 215.48C85.1563 214.613 84.9163 213.613 84.9163 212.48C84.9163 211.36 85.1629 210.367 85.6563 209.5C86.1496 208.633 86.8229 207.967 87.6763 207.5C88.5296 207.033 89.4829 206.8 90.5363 206.8C91.5896 206.8 92.5429 207.033 93.3963 207.5C94.2496 207.967 94.9229 208.633 95.4163 209.5C95.9096 210.367 96.1563 211.36 96.1563 212.48C96.1563 213.6 95.9029 214.593 95.3963 215.46C94.8896 216.327 94.1963 217 93.3163 217.48C92.4496 217.947 91.4896 218.18 90.4363 218.18ZM90.4363 216.2C91.0229 216.2 91.5696 216.06 92.0763 215.78C92.5963 215.5 93.0163 215.08 93.3363 214.52C93.6563 213.96 93.8163 213.28 93.8163 212.48C93.8163 211.68 93.6629 211.007 93.3563 210.46C93.0496 209.9 92.6429 209.48 92.1363 209.2C91.6296 208.92 91.0829 208.78 90.4963 208.78C89.9096 208.78 89.3629 208.92 88.8563 209.2C88.3629 209.48 87.9696 209.9 87.6763 210.46C87.3829 211.007 87.2363 211.68 87.2363 212.48C87.2363 213.667 87.5363 214.587 88.1363 215.24C88.7496 215.88 89.5163 216.2 90.4363 216.2ZM101.07 208.84V214.94C101.07 215.353 101.163 215.653 101.35 215.84C101.55 216.013 101.883 216.1 102.35 216.1H103.75V218H101.95C100.923 218 100.137 217.76 99.5902 217.28C99.0435 216.8 98.7702 216.02 98.7702 214.94V208.84H97.4702V206.98H98.7702V204.24H101.07V206.98H103.75V208.84H101.07ZM108.132 203.2V218H105.852V203.2H108.132ZM112.285 205.52C111.872 205.52 111.525 205.38 111.245 205.1C110.965 204.82 110.825 204.473 110.825 204.06C110.825 203.647 110.965 203.3 111.245 203.02C111.525 202.74 111.872 202.6 112.285 202.6C112.685 202.6 113.025 202.74 113.305 203.02C113.585 203.3 113.725 203.647 113.725 204.06C113.725 204.473 113.585 204.82 113.305 205.1C113.025 205.38 112.685 205.52 112.285 205.52ZM113.405 206.98V218H111.125V206.98H113.405ZM121.958 206.8C122.825 206.8 123.598 206.98 124.278 207.34C124.972 207.7 125.512 208.233 125.898 208.94C126.285 209.647 126.478 210.5 126.478 211.5V218H124.218V211.84C124.218 210.853 123.972 210.1 123.478 209.58C122.985 209.047 122.312 208.78 121.458 208.78C120.605 208.78 119.925 209.047 119.418 209.58C118.925 210.1 118.678 210.853 118.678 211.84V218H116.398V206.98H118.678V208.24C119.052 207.787 119.525 207.433 120.098 207.18C120.685 206.927 121.305 206.8 121.958 206.8Z" fill="white"/>
<defs>
<linearGradient id="paint0_linear_44_9" x1="140" y1="60" x2="60" y2="140" gradientUnits="userSpaceOnUse">
<stop offset="0.00343514" stop-color="#E44857"/>
<stop offset="0.4689" stop-color="#C711E1"/>
<stop offset="1" stop-color="#7F52FF"/>
</linearGradient>
</defs>
</svg>
